<svg width="20" height="20" viewBox="0 0 20 20" fill="none" xmlns="http://www.w3.org/2000/svg">
<path d="M9.5996 4.74111L9.99996 5.27624L10.4003 4.74111C11.1521 3.73632 12.3565 3.08325 13.7 3.08325C15.9798 3.08325 17.8333 4.94039 17.8333 7.24159C17.8333 8.17887 17.6838 9.04367 17.4242 9.846L17.4232 9.84926C16.8007 11.8193 15.5239 13.41 14.1418 14.5978C12.7575 15.7875 11.2962 16.5482 10.3556 16.8682L10.3556 16.8682L10.3502 16.8701C10.2787 16.8953 10.1517 16.9166 9.99996 16.9166C9.84821 16.9166 9.72121 16.8953 9.6497 16.8701L9.64971 16.8701L9.64435 16.8682C8.70372 16.5482 7.24246 15.7875 5.85815 14.5978C4.47603 13.41 3.19925 11.8193 2.57672 9.84926L2.57673 9.84926L2.57568 9.84601C2.3161 9.04367 2.16663 8.17887 2.16663 7.24159C2.16663 4.94039 4.0201 3.08325 6.29996 3.08325C7.64339 3.08325 8.84787 3.73632 9.5996 4.74111Z" fill="#FBFBFB" stroke="#858585"/>
</svg>
