<svg width="73" height="73" viewBox="0 0 73 73" fill="none" xmlns="http://www.w3.org/2000/svg">
<path d="M19.5036 47.3467H18.969V42.0827H20.5175C20.7591 42.0807 21.0002 42.1054 21.2364 42.1563C21.4408 42.1998 21.6348 42.2824 21.8079 42.3995C21.9656 42.5109 22.0924 42.6604 22.1766 42.8341C22.2713 43.0394 22.3168 43.2639 22.3093 43.4898C22.3142 43.6631 22.2841 43.8356 22.2207 43.997C22.1574 44.1584 22.0621 44.3054 21.9406 44.4292C21.8181 44.5482 21.6743 44.6432 21.5166 44.7091C21.3461 44.7798 21.1659 44.8246 20.982 44.8418L22.5231 47.3467H21.8558L20.3811 44.886H19.5036V47.3467ZM19.5036 44.4255H20.4327C20.7804 44.4457 21.1265 44.3637 21.4281 44.1897C21.543 44.1133 21.6358 44.0081 21.6973 43.8847C21.7587 43.7612 21.7867 43.6238 21.7784 43.4862C21.7834 43.3343 21.7505 43.1837 21.6825 43.0478C21.6191 42.9295 21.5264 42.8293 21.4134 42.7568C21.2857 42.6776 21.1444 42.6226 20.9968 42.5947C20.8184 42.5589 20.6368 42.5416 20.4548 42.5431H19.5036V44.4255Z" fill="#6D6E71"/>
<path d="M23.2273 47.3467H22.6375L24.9122 42.0827H25.4395L27.6995 47.3467H27.0986L26.5197 45.9653H23.7951L23.2273 47.3467ZM24.0016 45.4717H26.3243L25.163 42.6757L24.0016 45.4717Z" fill="#6D6E71"/>
<path d="M28.3042 42.0827H28.8388V44.3629H31.7072V42.0827H32.2418V47.3467H31.7072V44.8565H28.8425V47.3467H28.3042V42.0827Z" fill="#6D6E71"/>
<path d="M37.2189 46.5657V42.0827H37.7535V47.3467H37.0825L34.0187 42.8194V47.3467H33.4841V42.0827H34.1551L37.2189 46.5657Z" fill="#6D6E71"/>
<path d="M39.538 46.8715H42.3585V47.3467H39.0034V42.0827H42.27V42.5579H39.538V44.3629H42.0893V44.8381H39.538V46.8715Z" fill="#6D6E71"/>
<path d="M45.8498 46.4405L47.6121 42.0827H48.4306V47.3467H47.896V42.7752L45.9899 47.3467H45.7171L43.811 42.7752V47.3467H43.2764V42.0827H44.0949L45.8498 46.4405Z" fill="#6D6E71"/>
<path d="M49.6364 47.3467H49.0354L51.3102 42.0827H51.83L54.0901 47.3467H53.4965L52.9177 45.9653H50.1931L49.6364 47.3467ZM50.4106 45.4717H52.7223L51.5609 42.6757L50.4106 45.4717Z" fill="#6D6E71"/>
<path d="M23.5959 53.4911C23.5018 53.6255 23.3929 53.7491 23.2714 53.8595C23.1392 53.9821 22.9917 54.0874 22.8327 54.1726C22.6589 54.2656 22.4744 54.3374 22.2834 54.3862C22.0676 54.4403 21.8458 54.4663 21.6234 54.4636C21.2447 54.4686 20.8688 54.3984 20.5174 54.2573C20.1907 54.1264 19.8943 53.9301 19.6464 53.6805C19.3985 53.4309 19.2043 53.1333 19.0758 52.8059C18.9374 52.4541 18.8685 52.0788 18.873 51.7008C18.8697 51.3222 18.9411 50.9467 19.0832 50.5957C19.2138 50.269 19.4092 49.972 19.6575 49.7226C19.9059 49.4732 20.2021 49.2765 20.5284 49.1443C20.8795 49.0019 21.2557 48.9318 21.6345 48.938C22.0154 48.937 22.3922 49.016 22.7405 49.1701C22.8988 49.2399 23.0485 49.3276 23.1866 49.4317C23.3159 49.5288 23.4292 49.6457 23.5222 49.7779L23.076 50.1058C23.0133 50.0121 22.939 49.9267 22.8548 49.8516C22.757 49.7628 22.6479 49.6872 22.5304 49.6269C22.4011 49.5611 22.2651 49.5092 22.1248 49.4722C21.9708 49.4318 21.8121 49.412 21.6529 49.4132C21.3372 49.4075 21.024 49.4704 20.7349 49.5974C20.4702 49.714 20.2328 49.8846 20.0381 50.0984C19.8472 50.3133 19.7006 50.5636 19.6067 50.8351C19.5075 51.1155 19.4576 51.4108 19.4592 51.7082C19.4576 52.0058 19.5088 52.3014 19.6104 52.5812C19.706 52.8528 19.8538 53.103 20.0454 53.318C20.2378 53.5311 20.4726 53.7018 20.7349 53.8189C21.0215 53.9455 21.3322 54.0083 21.6455 54.0031C21.943 54.0047 22.2374 53.9418 22.5083 53.8189C22.7882 53.6897 23.0259 53.4842 23.194 53.2259L23.5959 53.4911Z" fill="#F7941D"/>
<path d="M29.9706 51.7119C29.9749 52.0902 29.9047 52.4657 29.7641 52.817C29.6331 53.144 29.4371 53.4412 29.1881 53.6906C28.9391 53.9401 28.6422 54.1366 28.3152 54.2684C27.6155 54.5462 26.8359 54.5462 26.1362 54.2684C25.8123 54.1354 25.5184 53.9387 25.2721 53.69C25.0257 53.4413 24.8319 53.1457 24.702 52.8207C24.4255 52.1098 24.4255 51.3213 24.702 50.6104C24.8327 50.2837 25.0281 49.9868 25.2764 49.7374C25.5248 49.488 25.821 49.2913 26.1473 49.1591C26.847 48.8812 27.6266 48.8812 28.3262 49.1591C28.6532 49.2908 28.9502 49.4874 29.1992 49.7368C29.4482 49.9862 29.6441 50.2834 29.7752 50.6104C29.9115 50.9614 29.9779 51.3355 29.9706 51.7119ZM29.4065 51.7119C29.4085 51.4133 29.3586 51.1167 29.259 50.8351C29.1651 50.5636 29.0185 50.3133 28.8277 50.0984C28.6351 49.8855 28.4003 49.7149 28.1382 49.5974C27.8502 49.4752 27.5405 49.4123 27.2276 49.4123C26.9146 49.4123 26.6049 49.4752 26.3169 49.5974C26.0548 49.7148 25.82 49.8854 25.6275 50.0984C25.4366 50.3133 25.29 50.5636 25.1961 50.8351C24.9983 51.4017 24.9983 52.0184 25.1961 52.5849C25.2891 52.8569 25.4358 53.1074 25.6275 53.3217C25.8208 53.5328 26.0555 53.702 26.3169 53.819C26.6049 53.9411 26.9146 54.0041 27.2276 54.0041C27.5405 54.0041 27.8502 53.9411 28.1382 53.819C28.3996 53.7019 28.6342 53.5327 28.8277 53.3217C29.0193 53.1074 29.166 52.8569 29.259 52.5849C29.3578 52.3057 29.4077 52.0116 29.4065 51.7156V51.7119Z" fill="#F7941D"/>
<path d="M31.943 53.8705H34.3985V54.3457H31.4084V49.0817H31.943V53.8705Z" fill="#F7941D"/>
<path d="M36.0575 53.8705H38.513V54.3457H35.5229V49.0817H36.0575V53.8705Z" fill="#F7941D"/>
<path d="M40.1869 53.8705H43.0074V54.3457H39.6523V49.0817H42.9189V49.5569H40.1869V51.3619H42.7383V51.8371H40.1869V53.8705Z" fill="#F7941D"/>
<path d="M48.3569 50.0321C48.1719 49.8382 47.9483 49.6851 47.7006 49.5827C47.4242 49.4719 47.1282 49.418 46.8305 49.4243C46.5172 49.419 46.2064 49.4818 45.9198 49.6085C45.6576 49.7257 45.4228 49.8964 45.2304 50.1095C45.0392 50.3247 44.8915 50.5749 44.7953 50.8462C44.5912 51.4116 44.5912 52.0305 44.7953 52.596C44.891 52.8675 45.0387 53.1178 45.2304 53.3327C45.4237 53.5439 45.6584 53.7132 45.9198 53.83C46.2065 53.9565 46.5172 54.0194 46.8305 54.0142C47.1063 54.0171 47.3813 53.9849 47.649 53.9184C47.861 53.8681 48.0638 53.7848 48.2499 53.6716V52.0729H47.0222V51.5719H48.7845V53.9479C48.4957 54.1221 48.1826 54.2524 47.8554 54.3347C47.5179 54.4193 47.1711 54.4613 46.8231 54.4599C46.4444 54.4649 46.0685 54.3948 45.7171 54.2536C45.3904 54.1227 45.094 53.9264 44.8461 53.6768C44.5982 53.4272 44.404 53.1296 44.2755 52.8022C44.1371 52.4504 44.0682 52.0751 44.0727 51.6971C44.0694 51.3185 44.1408 50.943 44.2829 50.592C44.4135 50.2653 44.6089 49.9683 44.8572 49.7189C45.1056 49.4695 45.4018 49.2728 45.7281 49.1406C46.0792 48.9983 46.4554 48.9281 46.8342 48.9344C47.2115 48.9257 47.587 48.9895 47.9402 49.1222C48.241 49.24 48.5145 49.4181 48.744 49.6453L48.3569 50.0321Z" fill="#F7941D"/>
<path d="M51.0114 53.8705H53.8282V54.3457H50.4731V49.0817H53.7397V49.5569H51.0077V51.3619H53.5591V51.8371H51.0077L51.0114 53.8705Z" fill="#F7941D"/>
<path d="M28.8829 25.4176V25.436C27.0026 23.2073 24.8458 21.4723 22.689 21.4723C21.2585 21.4723 18.9395 22.9126 18.9395 22.9126C22.6263 23.4799 23.3637 28.3277 23.3268 31.7057L34.8852 37.2054C34.9571 37.241 35.0396 37.2491 35.117 37.2281C35.1945 37.207 35.2615 37.1583 35.3055 37.0912L35.652 36.5497C35.7626 36.1224 32.6841 29.7386 28.8829 25.4176Z" fill="url(#paint0_linear_30_1177)"/>
<path d="M42.5833 19.31C32.8389 14.8343 24.0605 30.8179 23.4706 31.573C23.4153 31.643 23.3231 31.643 23.2678 31.6688L38.7527 39.0362C38.7838 39.0537 38.8182 39.0648 38.8537 39.0689C38.8892 39.073 38.9251 39.07 38.9594 39.06C38.9937 39.0501 39.0257 39.0334 39.0535 39.011C39.0813 38.9886 39.1044 38.9608 39.1214 38.9294C39.4458 38.3621 40.3343 36.8113 40.8837 36.0082C44.5853 30.5748 48.3533 27.462 53.8283 25.5539C53.8777 25.5372 53.9212 25.5065 53.9535 25.4656C53.9857 25.4246 54.0054 25.3752 54.0101 25.3233C54.0148 25.2714 54.0043 25.2193 53.9799 25.1732C53.9554 25.1272 53.9181 25.0892 53.8725 25.0639C51.8927 24.0178 45.0978 20.463 42.5833 19.31Z" fill="url(#paint1_linear_30_1177)"/>
<defs>
<linearGradient id="paint0_linear_30_1177" x1="19.7174" y1="22.1354" x2="34.9827" y2="37.4138" gradientUnits="userSpaceOnUse">
<stop stop-color="#F1626C"/>
<stop offset="0.11" stop-color="#EF5F6B"/>
<stop offset="0.2" stop-color="#E75567"/>
<stop offset="0.28" stop-color="#D94560"/>
<stop offset="0.35" stop-color="#C72E57"/>
<stop offset="0.41" stop-color="#AF114B"/>
<stop offset="0.45" stop-color="#A10044"/>
</linearGradient>
<linearGradient id="paint1_linear_30_1177" x1="40.386" y1="18.6285" x2="36.8488" y2="38.6947" gradientUnits="userSpaceOnUse">
<stop offset="0.02" stop-color="#F7941D"/>
<stop offset="0.38" stop-color="#F7901D"/>
<stop offset="0.7" stop-color="#F5851F"/>
<stop offset="0.89" stop-color="#F47B20"/>
</linearGradient>
</defs>
</svg>
