<svg width="20" height="20" viewBox="0 0 20 20" fill="none" xmlns="http://www.w3.org/2000/svg">
<path d="M8.84123 4.29079L7.66623 6.64079C7.50789 6.96579 7.08289 7.27412 6.72456 7.34079L4.59956 7.69079C3.24123 7.91579 2.92456 8.89912 3.89956 9.88246L5.55789 11.5408C5.83289 11.8158 5.99123 12.3575 5.89956 12.7491L5.42456 14.7991C5.04956 16.4158 5.91623 17.0491 7.34123 16.1991L9.33289 15.0158C9.69123 14.7991 10.2912 14.7991 10.6496 15.0158L12.6412 16.1991C14.0662 17.0408 14.9329 16.4158 14.5579 14.7991L14.0829 12.7491C14.0079 12.3491 14.1662 11.8075 14.4412 11.5325L16.0996 9.87412C17.0746 8.89912 16.7579 7.91579 15.3996 7.68246L13.2746 7.33246C12.9162 7.27412 12.4912 6.95746 12.3329 6.63246L11.1579 4.28246C10.5162 3.01579 9.48289 3.01579 8.84123 4.29079Z" fill="#3D195B"/>
</svg>
