<svg width="48" height="48" viewBox="0 0 48 48" fill="none" xmlns="http://www.w3.org/2000/svg">
<path d="M39.02 11.7L27.14 4.84C25.2 3.72 22.8 3.72 20.84 4.84L8.98 11.7C7.04 12.82 5.84 14.9 5.84 17.16V30.84C5.84 33.08 7.04 35.16 8.98 36.3L20.86 43.16C22.8 44.28 25.2 44.28 27.16 43.16L39.04 36.3C40.98 35.18 42.18 33.1 42.18 30.84V17.16C42.16 14.9 40.96 12.84 39.02 11.7ZM24 14.68C26.58 14.68 28.66 16.76 28.66 19.34C28.66 21.92 26.58 24 24 24C21.42 24 19.34 21.92 19.34 19.34C19.34 16.78 21.42 14.68 24 14.68ZM29.36 33.32H18.64C17.02 33.32 16.08 31.52 16.98 30.18C18.34 28.16 20.98 26.8 24 26.8C27.02 26.8 29.66 28.16 31.02 30.18C31.92 31.5 30.96 33.32 29.36 33.32Z" fill="#3D195B"/>
</svg>
