<svg width="270" height="343" viewBox="0 0 270 343" fill="none" xmlns="http://www.w3.org/2000/svg">
<path d="M53.31 28.32C62.884 32.8848 71.8695 38.5931 80.07 45.32C79.41 41.32 76.31 22.54 74.32 11.03C82.95 17.03 103.74 31.38 110.37 36.03C113.02 27.62 122.76 -0.019989 122.76 -0.019989C122.76 -0.019989 140.01 27.65 142.67 32.25C146.43 28.71 166.78 5.70999 172.09 -0.0400085C173.2 13.01 174.09 32.03 174.52 34.69C180.946 26.2308 188.373 18.5816 196.64 11.91C190.89 23.19 188.23 38.67 186.91 51.28C173.679 47.4681 159.979 45.5325 146.21 45.53C119.996 45.4939 94.2261 52.2906 71.44 65.25C67.68 53.09 61.71 38.05 53.31 28.32ZM260.79 265.88L248.85 252.61C245.53 288.22 227.85 318.75 195.76 339.98L190.67 320.74C163.24 340.43 116.57 353.03 76.31 330.47C81.4 305.03 85.6 279.15 76.31 248.19C53.97 282.48 34.31 296.19 34.31 296.19C19.31 270.75 20.6 220.1 25.02 205.06L0.0200195 212.8C0.0200195 195.8 12.41 159.71 30.1 139.36L14.84 136.93C25.4929 115.241 41.2842 96.4837 60.84 82.29C54.84 92.02 54.84 114.58 71.9 123.21C64.6 110.6 63.9 94.9 71.24 86.49C78.98 78.08 91.59 81.18 99.55 87.6C97.12 80.52 89.82 71.67 79.64 71.01C99.55 60.61 122.77 55.08 146.64 55.08C151.29 55.08 155.71 55.52 159.91 55.74C166.99 58.39 177.16 68.35 182.03 74.74C182.049 69.208 180.76 63.7498 178.27 58.81C204.37 65.22 216.98 75.81 222.07 80.93C223.18 92.21 226.49 98.85 231.14 109.69C222.73 100.4 201.5 84.92 191.14 81.38C191.14 81.38 190.03 91.11 186.72 95.76C166.37 81.16 156.64 77.4 156.64 77.4C134.08 79.61 120.14 88.46 112.18 95.1L118.82 100.85C105.55 104.85 96.7 116.55 96.7 116.55C96.7 116.99 108.64 118.55 108.64 118.55C108.64 118.55 107.31 132.49 125.01 141.33C140.01 148.63 161.29 139.56 181.64 147.74C168.37 132.48 159.3 125.4 159.3 125.4C156.312 124.781 153.279 124.41 150.23 124.29C145.58 124.29 138.51 125.4 131.23 122.29C127.47 120.96 123.23 118.29 120.17 116.29C120.17 116.29 129.46 106.56 143.17 104.57C143.17 104.57 155.56 107.89 165.29 115.19C171.7 108.78 178.56 109.19 178.56 109.19C178.56 109.19 171.92 115.6 173.91 122.9C181.087 129.507 187.882 136.519 194.26 143.9C204.88 137.9 228.32 139.25 233.19 145.01C227.19 137.01 218.19 130.63 211.51 125.1C210.85 122 203.1 111.83 202.22 110.72C207.047 112.535 211.533 115.152 215.49 118.46C217.868 115.234 221.318 112.962 225.22 112.05C229.87 116.05 230.97 122.05 230.53 123.11C229.363 124.684 227.851 125.97 226.11 126.87L237.39 139.26L238.5 130.19C264.77 167.67 279.15 211.25 260.79 265.88ZM211.24 185.14V165.9C204.751 163.589 198.694 160.209 193.32 155.9C174.74 158.55 152.4 177.36 152.4 177.36C152.4 177.36 160.14 191.74 168.33 207.44C182.93 209.03 204.6 190.9 211.24 185.14ZM229.82 220.09C228.54 214.389 225.781 209.126 221.82 204.83L207.52 205.25C207.52 205.25 187.83 221.84 176.11 222.25L186.11 240.83C192.75 239.5 204.03 234.19 208.89 228.89C210.855 235.94 211.676 243.26 211.32 250.57C217.87 246.42 226.94 236.25 229.82 220.09ZM235.82 156.39C231.571 159.878 227.131 163.127 222.52 166.12V185.36C227.83 191.11 232.92 195.98 236.9 204.6C244.2 191.78 242.43 172.54 235.79 156.39H235.82Z" fill="#360D3A"/>
</svg>
