<svg id="Layer_1" data-name="Layer 1" xmlns="http://www.w3.org/2000/svg" xmlns:xlink="http://www.w3.org/1999/xlink" viewBox="0 0 198 198.17"><defs><style>.cls-1{fill:#6d6e71;}.cls-2{fill:#f7941d;}.cls-3{fill:url(#linear-gradient);}.cls-4{fill:url(#linear-gradient-2);}</style><linearGradient id="linear-gradient" x1="53.48" y1="60.09" x2="94.92" y2="101.53" gradientUnits="userSpaceOnUse"><stop offset="0" stop-color="#f1626c"/><stop offset="0.11" stop-color="#ef5f6b"/><stop offset="0.2" stop-color="#e75567"/><stop offset="0.28" stop-color="#d94560"/><stop offset="0.35" stop-color="#c72e57"/><stop offset="0.41" stop-color="#af114b"/><stop offset="0.45" stop-color="#a10044"/></linearGradient><linearGradient id="linear-gradient-2" x1="109.54" y1="50.57" x2="99.93" y2="105.04" gradientUnits="userSpaceOnUse"><stop offset="0.02" stop-color="#f7941d"/><stop offset="0.38" stop-color="#f7901d"/><stop offset="0.7" stop-color="#f5851f"/><stop offset="0.89" stop-color="#f47b20"/></linearGradient></defs><title>logo</title><path class="cls-1" d="M52.9,128.53H51.45V114.24h4.2a8.9,8.9,0,0,1,1.95.2,4.4,4.4,0,0,1,1.55.66,3.1,3.1,0,0,1,1,1.18,3.94,3.94,0,0,1,.36,1.78,3.5,3.5,0,0,1-1,2.55,3.7,3.7,0,0,1-1.15.76,5,5,0,0,1-1.45.36l4.18,6.8H59.28l-4-6.68H52.9Zm0-7.93h2.52a4.84,4.84,0,0,0,2.7-.64,2.14,2.14,0,0,0,.95-1.91,2.48,2.48,0,0,0-.26-1.19,2.14,2.14,0,0,0-.73-.79,3.31,3.31,0,0,0-1.13-.44,7.15,7.15,0,0,0-1.47-.14H52.9Z"/><path class="cls-1" d="M63,128.53H61.4l6.17-14.29H69l6.13,14.29H73.5l-1.57-3.75H64.54Zm2.1-5.09h6.3l-3.15-7.59Z"/><path class="cls-1" d="M76.77,114.24h1.45v6.19H86v-6.19h1.45v14.29H86v-6.76H78.23v6.76H76.77Z"/><path class="cls-1" d="M100.95,126.41h0V114.24h1.45v14.29h-1.82l-8.31-12.29h0v12.29H90.82V114.24h1.82Z"/><path class="cls-1" d="M107.24,127.24h7.65v1.29h-9.1V114.24h8.86v1.29h-7.41v4.9h6.92v1.29h-6.92Z"/><path class="cls-1" d="M124.36,126.07h0l4.78-11.83h2.22v14.29h-1.45V116.12h0l-5.17,12.41H124l-5.17-12.41h0v12.41h-1.45V114.24h2.22Z"/><path class="cls-1" d="M134.63,128.53H133l6.17-14.29h1.41l6.13,14.29h-1.61l-1.57-3.75h-7.39Zm2.1-5.09H143l-3.15-7.59Z"/><path class="cls-2" d="M64,145.21a6,6,0,0,1-.88,1,5.73,5.73,0,0,1-1.19.85,6.65,6.65,0,0,1-1.49.58,7,7,0,0,1-1.79.21,7.77,7.77,0,0,1-3-.56,7,7,0,0,1-3.91-3.94,7.94,7.94,0,0,1-.55-3,7.82,7.82,0,0,1,.57-3,7.09,7.09,0,0,1,3.92-3.94,7.64,7.64,0,0,1,3-.56,7.36,7.36,0,0,1,3,.63,6.1,6.1,0,0,1,1.21.71,4.19,4.19,0,0,1,.91.94l-1.21.89a3.64,3.64,0,0,0-.6-.69,4.08,4.08,0,0,0-.88-.61,5.54,5.54,0,0,0-1.1-.42,4.89,4.89,0,0,0-1.28-.16,5.92,5.92,0,0,0-2.49.5A5.62,5.62,0,0,0,54.35,136a5.93,5.93,0,0,0-1.17,2,7,7,0,0,0-.4,2.37,6.84,6.84,0,0,0,.41,2.37,6,6,0,0,0,1.18,2,5.59,5.59,0,0,0,1.87,1.36,5.87,5.87,0,0,0,2.47.5,5.59,5.59,0,0,0,2.34-.5,4.44,4.44,0,0,0,1.86-1.61Z"/><path class="cls-2" d="M81.29,140.38a7.84,7.84,0,0,1-.56,3,7.09,7.09,0,0,1-3.93,3.94,8,8,0,0,1-5.91,0A7.09,7.09,0,0,1,67,143.39a8.28,8.28,0,0,1,0-6,7.09,7.09,0,0,1,3.92-3.94,8,8,0,0,1,5.91,0,7.09,7.09,0,0,1,3.93,3.94A7.84,7.84,0,0,1,81.29,140.38Zm-1.53,0a7,7,0,0,0-.4-2.38,5.93,5.93,0,0,0-1.17-2,5.62,5.62,0,0,0-1.87-1.36,6.32,6.32,0,0,0-4.94,0A5.61,5.61,0,0,0,69.51,136a5.93,5.93,0,0,0-1.17,2,7.21,7.21,0,0,0,0,4.75,5.83,5.83,0,0,0,1.17,2,5.68,5.68,0,0,0,1.87,1.35,6.32,6.32,0,0,0,4.94,0,5.69,5.69,0,0,0,1.87-1.35,5.83,5.83,0,0,0,1.17-2A7,7,0,0,0,79.76,140.39Z"/><path class="cls-2" d="M86.64,146.24H93.3v1.29H85.19V133.24h1.45Z"/><path class="cls-2" d="M97.8,146.24h6.66v1.29H96.35V133.24H97.8Z"/><path class="cls-2" d="M109,146.24h7.65v1.29h-9.1V133.24h8.86v1.29H109v4.9h6.92v1.29H109Z"/><path class="cls-2" d="M131.16,135.82a5.21,5.21,0,0,0-1.78-1.22,6,6,0,0,0-2.36-.43,5.86,5.86,0,0,0-2.47.5,5.6,5.6,0,0,0-1.87,1.36,6.06,6.06,0,0,0-1.18,2,7,7,0,0,0,0,4.75,6,6,0,0,0,1.18,2,5.67,5.67,0,0,0,1.87,1.35,5.87,5.87,0,0,0,2.47.5,8.82,8.82,0,0,0,2.22-.26,5.64,5.64,0,0,0,1.63-.67v-4.34h-3.33V140h4.78v6.45a9.24,9.24,0,0,1-2.52,1.05,11.32,11.32,0,0,1-2.8.34,7.77,7.77,0,0,1-3-.56,7,7,0,0,1-3.91-3.94,7.94,7.94,0,0,1-.55-3,7.82,7.82,0,0,1,.57-3,7.09,7.09,0,0,1,3.92-3.94,7.64,7.64,0,0,1,3-.56,8,8,0,0,1,3,.51,6.43,6.43,0,0,1,2.18,1.42Z"/><path class="cls-2" d="M138.36,146.24H146v1.29h-9.1V133.24h8.86v1.29h-7.41v4.9h6.92v1.29h-6.92Z"/><path class="cls-3" d="M78.34,69l0,.05C73.24,63,67.39,58.29,61.54,58.29c-3.88,0-10.17,3.91-10.17,3.91,10,1.54,12,14.7,11.9,23.87h0L94.62,101a.89.89,0,0,0,1.14-.31l.94-1.47C97,98.06,88.65,80.73,78.34,69Z"/><path class="cls-4" d="M115.5,52.42C89.07,40.27,65.26,83.66,63.66,85.71c-.15.19-.4.19-.55.26l42,20a.73.73,0,0,0,1-.29c.88-1.54,3.29-5.75,4.78-7.93C120.93,83,131.15,74.55,146,69.37a.73.73,0,0,0,.12-1.33C140.75,65.2,122.32,55.55,115.5,52.42Z"/></svg>