<svg id="Layer_1" data-name="Layer 1" xmlns="http://www.w3.org/2000/svg" viewBox="0 0 610 625">
  <g>
    <rect x="-290" width="900" height="625" fill="#14ad5c"/>
    <path d="M-258,35V590H577V35Zm5,220h48V370h-48Zm52,119V251h-52V164H-99V461H-253V374Zm-52,91H-95V389.1a93.4,93.4,0,0,0,39.2-76.6A93.4,93.4,0,0,0-95,235.9V160H-253V65.9A28.8,28.8,0,0,0-226.6,40H157V218c-50,1.4-92,43.2-92,94.5s42,93.1,92,94.5V585H-226.6A28.8,28.8,0,0,0-253,559.1ZM-95,242.1C-73,259-60.8,285-60.8,312.5S-73,366-95,382.9Zm252,63.3c-2,1.1-5,3.8-5,7.1s3,6,5,7.1V402c-48-1.4-87-41-87-89.5s39-88.1,87-89.5Zm5,14.2a7.5,7.5,0,0,0,0-14.2V223a89.5,89.5,0,0,1,0,179Zm0,87.4a94.5,94.5,0,0,0,0-189V40H546.6C547.8,53.7,559,64.7,572,65.9V160H415v75.9a94.4,94.4,0,0,0,0,153.2V465H572v94.1c-13,1.2-24.2,12.2-25.4,25.9H162Zm410-37H525V255h47ZM521,251V374h51v87H419V164H572v87ZM415,382.9c-22-16.9-34.2-42.9-34.2-70.4S393,259,415,242.1Zm157-322C562,59.7,552.8,51,551.6,40H572ZM-231.6,40C-232.8,51-242,59.7-253,60.9V40ZM-253,564.1c11,1.2,20.2,9.9,21.4,20.9H-253ZM551.6,585c1.2-11,10.4-19.7,20.4-20.9V585ZM-144.5,312.5a5,5,0,0,1,5-5,5,5,0,0,1,5,5,5,5,0,0,1-5,5A5,5,0,0,1-144.5,312.5Zm609,0a5,5,0,1,1-5-5A5,5,0,0,1,464.5,312.5Z" fill="#fff"/>
    <g opacity="0.15">
      <rect x="20.5" y="37.5" width="92" height="550" fill="#fff"/>
      <rect x="204.5" y="37.5" width="92" height="550" fill="#fff"/>
      <rect x="389.5" y="37.5" width="92" height="550" fill="#fff"/>
    </g>
  </g>
</svg>
